<?xml version="1.0" encoding="UTF-8"?>
<svg width="12px" height="12px" viewBox="0 0 12 12" version="1.1" xmlns="http://www.w3.org/2000/svg" xmlns:xlink="http://www.w3.org/1999/xlink">
    <!-- Generator: Sketch 47 (45396) - http://www.bohemiancoding.com/sketch -->
    <title>Combined Shape</title>
    <desc>Created with Sketch.</desc>
    <defs></defs>
    <g id="Page-1" stroke="none" stroke-width="1" fill="none" fill-rule="evenodd">
        <g id="斯坦威钢琴-英文" transform="translate(-292.000000, -278.000000)" fill-rule="nonzero" fill="#8A7659">
            <g id="语言" transform="translate(292.000000, 274.000000)">
                <path d="M0.426731977,10.0029057 C0.325882903,9.99002694 0.222638264,10.0201445 0.141399292,10.0895821 C0.0324109523,10.182738 -0.0193637123,10.3316138 0.00660451528,10.4771787 C0.431782764,13.6254558 3.02552248,15.9999491 6.04063062,15.9999491 C7.96514037,16.0080518 9.77840509,15.0477542 10.9240848,13.4136919 C11.0501214,13.2355927 11.0156657,12.9832469 10.847126,12.8500617 C10.6785862,12.7168764 10.4397848,12.7532863 10.3137482,12.9313855 C9.31157296,14.3616642 7.72476078,15.2021642 6.04063062,15.1947632 C3.60163927,15.1947632 1.47726094,13.4189037 0.876208851,10.9745336 C2.71447788,11.5031297 3.64416846,11.7672566 3.66528058,11.7669144 C3.8579601,11.7710255 4.02226578,11.6088436 4.04600131,11.3911148 C4.06973683,11.1733861 3.9452399,10.9703976 3.75752338,10.9207603 C1.60114206,10.3252111 0.490878264,10.0192596 0.426731977,10.0029057 Z M5.95139943,4.75183951 C4.26385875,4.74541427 2.67465341,5.53008028 1.67050867,6.86514138 C1.53838411,7.01270668 1.31333611,7.03552379 1.15346631,6.91756314 C0.993596515,6.7996025 0.952553472,6.58044892 1.05917091,6.41406307 C2.20697599,4.88913231 4.02269683,3.99290357 5.94987299,4.00004233 C8.97145376,4.00004233 11.5694484,6.21784401 11.994561,9.15812278 C12.0069102,9.24171778 12.0053604,9.73402467 11.9116645,9.85424713 C11.8179687,9.97446958 11.667172,10.0262748 11.5248636,9.98713008 C11.4934186,9.98715534 11.4621046,9.98283249 11.4317121,9.97427069 L8.13884603,9.08697269 C8.04148003,9.06101946 7.95788187,8.9949413 7.90656636,8.90337281 C7.85525084,8.81180432 7.84045305,8.70230264 7.86545029,8.59911952 C7.88954011,8.49555591 7.95173618,8.4065587 8.03812842,8.35203201 C8.12452065,8.29750532 8.22790114,8.28199845 8.32514894,8.3089795 L11.2105709,9.08648733 C10.7609516,6.60270575 8.531989,4.75183951 5.95139943,4.75183951 Z" id="Combined-Shape"></path>
            </g>
        </g>
    </g>
</svg>