<?xml version="1.0" encoding="UTF-8"?>
<svg width="160px" height="25px" viewBox="0 0 160 25" version="1.1" xmlns="http://www.w3.org/2000/svg" xmlns:xlink="http://www.w3.org/1999/xlink">
    <!-- Generator: Sketch 47 (45396) - http://www.bohemiancoding.com/sketch -->
    <title>分割</title>
    <desc>Created with Sketch.</desc>
    <defs></defs>
    <g id="Page-1" stroke="none" stroke-width="1" fill="none" fill-rule="evenodd">
        <g id="斯坦威钢琴-英文" transform="translate(-107.000000, -338.000000)" fill="#8A7659">
            <g id="内容" transform="translate(20.000000, 306.000000)">
                <path d="M165.984746,45.8477566 C166.136353,45.7590401 166.309535,45.7091239 166.499501,45.7091239 C167.474253,45.7091239 168.008022,47.0206903 167.453302,48.1466675 C167.203877,48.6557419 167.003339,49.2726447 166.876631,49.8885106 C166.566347,51.3835927 167.582005,53.1057364 169.433734,50.8776287 C171.506953,48.6598891 175.357075,44.3477905 180.122086,47.7267589 C182.477654,49.3960252 184.355323,45.7257129 178.189542,45.2923257 C180.763606,44.0253422 182.923625,43.6852681 184.611732,44.2928395 C186.038442,44.8050244 187.146886,46.0077256 187.911123,47.8625812 C188.567609,49.452013 189.845662,50.9450215 191,52.068925 C189.604219,51.9693911 188.103679,52.2472566 186.844583,52.6702756 C184.863152,53.3400558 182.267139,52.6599075 180.936208,51.1171321 C180.590007,50.7200334 178.930833,48.5717602 177.82638,47.9154586 C174.679637,46.2171615 168.58569,51.8750413 166.499501,57 C164.413312,51.8750413 158.320363,46.2171615 155.17362,47.9154586 C154.070165,48.5717602 152.409993,50.7200334 152.062794,51.1171321 C150.731863,52.6599075 148.136848,53.3400558 146.154419,52.6702756 C144.896321,52.2472566 143.395781,51.9693911 142,52.068925 C143.154338,50.9450215 144.432391,49.452013 145.088877,47.8625812 C145.853114,46.0077256 146.962556,44.8050244 148.388268,44.2928395 C150.075377,43.6852681 152.237391,44.0253422 154.811455,45.2923257 C148.645674,45.7257129 150.522346,49.3960252 152.877914,47.7267589 C157.642925,44.3477905 161.493047,48.6598891 163.566266,50.8776287 C165.417995,53.1057364 166.433653,51.3835927 166.123369,49.8885106 C165.995663,49.2726447 165.796123,48.6557419 165.546698,48.1466675 C165.136601,47.3127482 165.322463,46.3770303 165.84205,45.9477192 C165.736405,45.8716955 165.578069,45.7100964 165.367961,45.4456362 C163.414511,42.9901386 161.088685,42.5713079 158.977535,43.2827042 C158.084239,43.5834821 155.496936,44.8789829 155.047235,43.1605452 C154.560908,41.3681962 157.962148,40.8292597 159.18102,41.0448343 C160.667473,41.3261079 163.410442,41.7480182 165.686414,45.2659907 C165.849863,45.519276 165.948918,45.7205212 165.984746,45.8477566 Z M168.313563,45.2656881 C170.589366,41.7471616 173.332131,41.3251849 174.818474,41.0448937 C176.036237,40.8292852 179.438243,41.3672799 178.952969,43.1599111 C178.502284,44.8786193 175.915173,43.5829145 175.021943,43.2820893 C172.911967,42.570581 170.586314,42.9894776 168.631992,45.4463886 C167.920867,46.3406508 167.802855,46.0572795 168.313563,45.2656881 Z M167.500371,42.0350145 C166.811896,42.0569386 166.188888,42.7136203 166.835126,45 C162.910181,41.1256826 163.695804,37.0310793 165.403266,34.8292644 C166.054784,33.9846611 166.857301,33.1097816 167.29235,32.1315451 C167.368378,31.9561516 167.630253,31.9561516 167.708392,32.1315451 C168.14133,33.1097816 168.945959,33.9846611 169.598533,34.8292644 C171.303883,37.0310793 172.089506,41.1256826 168.16456,45 C168.811854,42.7136203 168.189903,42.0569386 167.500371,42.0350145 Z M106.272627,46 L145,46 L143.967005,47 L106.272627,47 L87,46.4996395 L106.272627,46 Z M227.727703,46 L247,46.4996395 L227.727703,47 L190.033973,47 L189,46 L227.727703,46 Z" id="分割"></path>
            </g>
        </g>
    </g>
</svg>